<svg xmlns="http://www.w3.org/2000/svg" xmlns:xlink="http://www.w3.org/1999/xlink" width="5000" zoomAndPan="magnify" viewBox="0 0 3750 749.999995" height="1000" preserveAspectRatio="xMidYMid meet" version="1.0"><defs><g/><clipPath id="b591e56c39"><path d="M 196 101 L 843.980469 101 L 843.980469 717.945312 L 196 717.945312 Z M 196 101 " clip-rule="nonzero"/></clipPath><clipPath id="0d187ab406"><path d="M 424 31.695312 L 836 31.695312 L 836 482 L 424 482 Z M 424 31.695312 " clip-rule="nonzero"/></clipPath><clipPath id="ac2ad52be9"><path d="M 242.121094 456.445312 L 467.875 456.445312 L 467.875 682.199219 L 242.121094 682.199219 Z M 242.121094 456.445312 " clip-rule="nonzero"/></clipPath><clipPath id="b3aa0e0232"><path d="M 354.996094 456.445312 C 292.65625 456.445312 242.121094 506.980469 242.121094 569.320312 C 242.121094 631.660156 292.65625 682.199219 354.996094 682.199219 C 417.335938 682.199219 467.875 631.660156 467.875 569.320312 C 467.875 506.980469 417.335938 456.445312 354.996094 456.445312 " clip-rule="nonzero"/></clipPath></defs><rect x="-375" width="4500" fill="#ffffff" y="-74.999999" height="899.999994" fill-opacity="1"/><rect x="-375" width="4500" fill="#ffffff" y="-74.999999" height="899.999994" fill-opacity="1"/><rect x="-375" width="4500" fill="#ffffff" y="-74.999999" height="899.999994" fill-opacity="1"/><path fill="#f5978f" d="M 258.191406 491.722656 C 214.9375 539.160156 218.28125 612.898438 265.703125 656.222656 C 288.003906 676.539062 316.058594 686.578125 344.113281 686.578125 C 375.6875 686.578125 407.207031 673.835938 430.152344 648.710938 C 473.410156 601.273438 470.0625 527.535156 422.640625 484.207031 C 375.21875 440.9375 301.445312 444.285156 258.191406 491.722656 Z M 412.78125 632.859375 C 378.269531 670.726562 319.347656 673.425781 281.550781 638.847656 C 243.695312 604.324219 240.996094 545.382812 275.5625 507.574219 C 293.875 487.496094 318.992188 477.339844 344.230469 477.339844 C 366.589844 477.339844 389.011719 485.324219 406.792969 501.585938 C 444.648438 536.105469 447.351562 594.992188 412.78125 632.859375 Z M 412.78125 632.859375 " fill-opacity="1" fill-rule="nonzero"/><g clip-path="url(#b591e56c39)"><path fill="#f5978f" d="M 579.988281 501.996094 L 547.300781 536.929688 L 514.667969 571.917969 L 482.035156 606.910156 L 449.460938 641.957031 L 441.304688 650.707031 L 437.253906 655.109375 C 435.964844 656.460938 434.730469 657.75 433.382812 659.042969 C 428.097656 664.207031 422.40625 668.90625 416.359375 673.074219 C 404.269531 681.46875 390.714844 687.574219 376.511719 691.273438 C 369.410156 693.09375 362.132812 694.269531 354.855469 694.855469 C 347.574219 695.441406 340.238281 695.382812 332.960938 694.679688 C 325.683594 693.972656 318.464844 692.683594 311.421875 690.746094 C 304.378906 688.808594 297.511719 686.226562 290.941406 683.113281 C 284.367188 680 278.085938 676.246094 272.101562 672.015625 C 266.171875 667.789062 260.597656 662.976562 255.433594 657.808594 C 250.328125 652.585938 245.632812 647.007812 241.464844 641.019531 C 237.355469 635.03125 233.71875 628.691406 230.664062 622.054688 C 227.613281 615.421875 225.207031 608.554688 223.328125 601.507812 C 221.507812 594.460938 220.277344 587.242188 219.691406 579.960938 C 218.515625 565.402344 219.867188 550.664062 223.738281 536.574219 C 227.613281 522.484375 233.894531 509.101562 242.402344 497.183594 C 244.515625 494.1875 246.746094 491.3125 249.152344 488.492188 C 251.441406 485.792969 254.257812 482.738281 256.898438 479.804688 L 288.828125 444.226562 L 304.730469 426.378906 L 336.542969 390.625 C 378.917969 342.953125 421.054688 294.988281 462.902344 246.847656 C 483.855469 222.777344 504.691406 198.589844 525.40625 174.34375 L 540.960938 156.140625 L 556.453125 137.882812 C 566.785156 125.671875 577.054688 113.519531 587.265625 101.191406 C 575.941406 112.464844 564.789062 123.851562 553.578125 135.242188 L 536.851562 152.328125 L 520.125 169.46875 C 497.882812 192.367188 475.753906 215.320312 453.6875 238.394531 C 409.554688 284.480469 365.710938 330.800781 322.105469 377.414062 L 273.15625 429.902344 L 256.898438 447.457031 L 240.640625 465.007812 C 237.941406 467.945312 235.300781 470.703125 232.367188 474.050781 C 229.550781 477.28125 226.851562 480.683594 224.269531 484.148438 C 219.160156 491.136719 214.703125 498.53125 210.945312 506.339844 C 207.1875 514.089844 204.019531 522.191406 201.730469 530.527344 C 199.382812 538.867188 197.738281 547.378906 196.917969 556.007812 C 196.039062 564.636719 195.980469 573.328125 196.625 581.898438 C 197.914062 599.160156 202.316406 616.183594 209.476562 631.976562 C 213.058594 639.84375 217.402344 647.417969 222.332031 654.523438 C 227.261719 661.625 232.835938 668.320312 238.941406 674.484375 C 245.042969 680.589844 251.675781 686.226562 258.71875 691.214844 C 265.820312 696.207031 273.273438 700.609375 281.140625 704.25 C 296.808594 711.585938 313.828125 716.105469 331.027344 717.515625 C 348.222656 718.984375 365.652344 717.339844 382.320312 712.820312 C 398.929688 708.242188 414.777344 700.726562 428.746094 690.746094 C 435.730469 685.753906 442.242188 680.058594 448.230469 673.953125 C 449.757812 672.429688 451.164062 670.84375 452.632812 669.257812 L 456.621094 664.796875 L 464.605469 655.871094 L 496.53125 620.234375 L 528.402344 584.539062 L 560.210938 548.847656 L 592.019531 513.09375 C 634.335938 465.363281 676.59375 417.515625 718.617188 369.550781 C 760.636719 321.523438 802.542969 273.382812 843.980469 224.832031 C 799.433594 270.566406 755.355469 316.710938 711.398438 362.914062 C 667.378906 409 623.65625 455.5 579.988281 501.996094 Z M 579.988281 501.996094 " fill-opacity="1" fill-rule="nonzero"/></g><g clip-path="url(#0d187ab406)"><path fill="#f5978f" d="M 427.394531 461.546875 C 427.277344 461.664062 427.160156 461.78125 427.101562 461.898438 C 422.816406 466.769531 423.285156 474.167969 428.214844 478.453125 C 433.148438 482.738281 440.484375 482.269531 444.765625 477.339844 L 835.703125 31.328125 Z M 427.394531 461.546875 " fill-opacity="1" fill-rule="nonzero"/></g><path fill="#f5978f" d="M 382.085938 444.871094 L 593.605469 195.59375 L 364.773438 429.019531 C 364.597656 429.199219 364.363281 429.433594 364.183594 429.667969 C 359.960938 434.597656 360.605469 442.054688 365.535156 446.222656 C 370.464844 450.449219 377.917969 449.804688 382.085938 444.871094 Z M 382.085938 444.871094 " fill-opacity="1" fill-rule="nonzero"/><path fill="#f5978f" d="M 466.246094 538.042969 C 471.179688 542.269531 478.574219 541.742188 482.796875 536.8125 L 767.152344 207.628906 L 465.484375 520.960938 C 465.367188 521.078125 465.191406 521.253906 465.074219 521.429688 C 460.789062 526.359375 461.375 533.757812 466.246094 538.042969 Z M 466.246094 538.042969 " fill-opacity="1" fill-rule="nonzero"/><g clip-path="url(#ac2ad52be9)"><g clip-path="url(#b3aa0e0232)"><path fill="#ffffff" d="M 242.121094 456.445312 L 467.875 456.445312 L 467.875 682.199219 L 242.121094 682.199219 Z M 242.121094 456.445312 " fill-opacity="1" fill-rule="nonzero"/></g></g><g fill="#30bdd9" fill-opacity="1"><g transform="translate(214.991662, 683.523225)"><g><path d="M 130.941406 4.84375 C 179.375 4.84375 229.980469 -23.046875 240.503906 -83.84375 L 197.914062 -83.84375 C 189.0625 -48.9375 162.003906 -33.402344 129.769531 -33.402344 C 86.847656 -33.402344 52.609375 -64.46875 52.609375 -113.738281 C 52.609375 -162.171875 86.847656 -194.40625 129.769531 -194.40625 C 162.171875 -194.40625 189.0625 -178.707031 198.082031 -143.800781 L 240.503906 -143.800781 C 229.980469 -204.425781 178.875 -232.484375 130.941406 -232.484375 C 63.96875 -232.484375 11.023438 -179.875 11.023438 -113.90625 C 11.023438 -47.933594 63.96875 4.84375 130.941406 4.84375 Z M 130.941406 4.84375 "/></g></g></g><g fill="#30bdd9" fill-opacity="1"><g transform="translate(603.503534, 683.523225)"><g><path d="M 92.359375 5.175781 C 120.25 5.175781 142.964844 -7.515625 154.15625 -28.894531 L 154.15625 0 L 192.570312 0 L 192.570312 -171.691406 L 154.15625 -171.691406 L 154.15625 -142.632812 C 143.132812 -164.007812 120.25 -176.871094 92.191406 -176.871094 C 46.261719 -176.871094 11.523438 -135.949219 11.523438 -85.847656 C 11.523438 -35.40625 45.929688 5.175781 92.359375 5.175781 Z M 102.046875 -32.234375 C 74.824219 -32.234375 51.609375 -52.441406 51.609375 -85.847656 C 51.609375 -118.082031 74.320312 -139.457031 102.046875 -139.457031 C 130.105469 -139.457031 152.484375 -115.742188 152.484375 -85.847656 C 152.484375 -55.449219 130.273438 -32.234375 102.046875 -32.234375 Z M 102.046875 -32.234375 "/></g></g></g><g fill="#30bdd9" fill-opacity="1"><g transform="translate(956.608082, 683.523225)"><g><path d="M 94.53125 5.175781 C 123.257812 5.175781 143.800781 -10.855469 153.988281 -28.894531 L 153.988281 0 L 192.402344 0 L 192.402344 -235.15625 L 152.152344 -235.15625 L 152.152344 -161.503906 L 152.988281 -143.632812 C 143.96875 -159.835938 123.089844 -176.871094 95.03125 -176.871094 C 44.925781 -176.871094 11.523438 -135.949219 11.523438 -85.847656 C 11.523438 -35.40625 45.761719 5.175781 94.53125 5.175781 Z M 101.878906 -32.066406 C 72.316406 -32.066406 51.273438 -55.449219 51.273438 -85.847656 C 51.273438 -117.078125 73.320312 -139.457031 101.878906 -139.457031 C 130.273438 -139.457031 152.484375 -115.910156 152.484375 -85.847656 C 152.484375 -55.449219 130.105469 -32.066406 101.878906 -32.066406 Z M 101.878906 -32.066406 "/></g></g></g><g fill="#30bdd9" fill-opacity="1"><g transform="translate(1309.378594, 683.523225)"><g><path d="M 187.058594 -88.851562 C 187.058594 -136.117188 152.316406 -176.871094 100.542969 -176.871094 C 48.9375 -176.871094 11.523438 -135.949219 11.523438 -85.847656 C 11.523438 -35.742188 48.9375 5.175781 100.542969 5.175781 C 143.300781 5.175781 173.863281 -23.046875 182.546875 -53.945312 L 138.457031 -53.945312 C 132.609375 -39.414062 120.085938 -30.898438 99.707031 -30.898438 C 75.992188 -30.898438 56.285156 -47.097656 52.109375 -75.15625 L 186.222656 -75.15625 C 186.890625 -81.503906 187.058594 -84.511719 187.058594 -88.851562 Z M 53.777344 -106.390625 C 60.625 -130.605469 80 -141.628906 100.375 -141.628906 C 124.09375 -141.628906 144.132812 -125.597656 145.804688 -106.390625 Z M 53.777344 -106.390625 "/></g></g></g><g fill="#30bdd9" fill-opacity="1"><g transform="translate(1642.441261, 683.523225)"><g><path d="M 64.132812 0 L 64.132812 -87.683594 C 64.132812 -121.253906 85.847656 -139.625 109.5625 -139.625 C 133.945312 -139.625 149.3125 -125.761719 149.3125 -91.691406 L 149.3125 0 L 189.730469 0 L 189.730469 -92.527344 C 189.730469 -146.472656 166.847656 -176.871094 120.753906 -176.871094 C 94.363281 -176.871094 71.984375 -163.675781 62.128906 -144.96875 L 62.128906 -171.691406 L 23.714844 -171.691406 L 23.714844 0 Z M 64.132812 0 "/></g></g></g><g fill="#30bdd9" fill-opacity="1"><g transform="translate(1991.37042, 683.523225)"><g><path d="M 100.210938 5.175781 C 144.300781 5.175781 176.703125 -23.046875 185.554688 -62.796875 L 144.46875 -62.796875 C 136.953125 -41.417969 119.917969 -32.234375 100.375 -32.234375 C 75.65625 -32.234375 51.609375 -51.941406 51.609375 -85.847656 C 51.609375 -119.582031 75.492188 -139.292969 100.375 -139.292969 C 119.917969 -139.292969 136.785156 -130.105469 144.46875 -111.066406 L 185.722656 -111.066406 C 176.035156 -148.8125 144.46875 -176.871094 100.210938 -176.871094 C 48.9375 -176.871094 11.523438 -135.785156 11.523438 -85.847656 C 11.523438 -35.742188 48.9375 5.175781 100.210938 5.175781 Z M 100.210938 5.175781 "/></g></g></g><g fill="#30bdd9" fill-opacity="1"><g transform="translate(2322.762925, 683.523225)"><g><path d="M 187.058594 -88.851562 C 187.058594 -136.117188 152.316406 -176.871094 100.542969 -176.871094 C 48.9375 -176.871094 11.523438 -135.949219 11.523438 -85.847656 C 11.523438 -35.742188 48.9375 5.175781 100.542969 5.175781 C 143.300781 5.175781 173.863281 -23.046875 182.546875 -53.945312 L 138.457031 -53.945312 C 132.609375 -39.414062 120.085938 -30.898438 99.707031 -30.898438 C 75.992188 -30.898438 56.285156 -47.097656 52.109375 -75.15625 L 186.222656 -75.15625 C 186.890625 -81.503906 187.058594 -84.511719 187.058594 -88.851562 Z M 53.777344 -106.390625 C 60.625 -130.605469 80 -141.628906 100.375 -141.628906 C 124.09375 -141.628906 144.132812 -125.597656 145.804688 -106.390625 Z M 53.777344 -106.390625 "/></g></g></g><g fill="#f5978f" fill-opacity="1"><g transform="translate(2653.357852, 683.523225)"><g><path d="M 184.21875 0 L 184.21875 -37.246094 L 68.644531 -37.246094 L 68.644531 -97.871094 L 167.183594 -97.871094 L 167.183594 -132.945312 L 68.644531 -132.945312 L 68.644531 -189.898438 L 182.714844 -189.898438 L 182.714844 -227.140625 L 27.054688 -227.140625 L 27.054688 0 Z M 184.21875 0 "/></g></g></g><g fill="#f5978f" fill-opacity="1"><g transform="translate(2985.251407, 683.523225)"><g><path d="M 107.726562 0 L 176.535156 -171.691406 L 133.277344 -171.691406 L 93.363281 -67.808594 L 89.019531 -49.9375 L 84.511719 -67.976562 L 44.59375 -171.691406 L 1.671875 -171.691406 L 70.148438 0 Z M 107.726562 0 "/></g></g></g><g fill="#f5978f" fill-opacity="1"><g transform="translate(3300.109367, 683.523225)"><g><path d="M 92.359375 5.175781 C 120.25 5.175781 142.964844 -7.515625 154.15625 -28.894531 L 154.15625 0 L 192.570312 0 L 192.570312 -171.691406 L 154.15625 -171.691406 L 154.15625 -142.632812 C 143.132812 -164.007812 120.25 -176.871094 92.191406 -176.871094 C 46.261719 -176.871094 11.523438 -135.949219 11.523438 -85.847656 C 11.523438 -35.40625 45.929688 5.175781 92.359375 5.175781 Z M 102.046875 -32.234375 C 74.824219 -32.234375 51.609375 -52.441406 51.609375 -85.847656 C 51.609375 -118.082031 74.320312 -139.457031 102.046875 -139.457031 C 130.105469 -139.457031 152.484375 -115.742188 152.484375 -85.847656 C 152.484375 -55.449219 130.273438 -32.234375 102.046875 -32.234375 Z M 102.046875 -32.234375 "/></g></g></g><g fill="#f5978f" fill-opacity="1"><g transform="translate(922.950426, 355.965223)"><g><path d="M 81.359375 3.875 C 125.980469 3.875 153.230469 -16.164062 153.230469 -50.230469 C 153.230469 -87.503906 119.433594 -98.59375 89.242188 -103.402344 C 56.644531 -107.808594 38.339844 -115.960938 38.339844 -135.0625 C 38.339844 -150.027344 47.425781 -164.855469 80.289062 -164.855469 C 107.542969 -164.855469 122.238281 -152.03125 122.238281 -133.996094 L 146.019531 -133.996094 C 146.019531 -164.320312 123.308594 -185.695312 80.558594 -185.695312 C 33.265625 -185.695312 14.695312 -162.316406 14.695312 -135.195312 C 14.695312 -98.457031 51.566406 -88.4375 81.894531 -83.363281 C 109.011719 -79.222656 129.320312 -71.605469 129.320312 -50.230469 C 129.320312 -27.789062 112.21875 -16.433594 81.226562 -16.433594 C 51.300781 -16.433594 33.664062 -33.53125 33.664062 -52.636719 L 10.019531 -52.636719 C 10.019531 -25.117188 32.0625 3.875 81.359375 3.875 Z M 81.359375 3.875 "/></g></g></g><g fill="#f5978f" fill-opacity="1"><g transform="translate(1085.48387, 355.965223)"><g><path d="M 81.359375 3.875 C 122.105469 3.875 152.429688 -28.054688 152.429688 -68.132812 C 152.429688 -108.078125 121.972656 -140.140625 81.359375 -140.140625 C 40.878906 -140.140625 10.554688 -107.945312 10.554688 -68.132812 C 10.554688 -28.054688 41.011719 3.875 81.359375 3.875 Z M 81.625 -17.769531 C 54.507812 -17.769531 33.53125 -39.144531 33.53125 -68.132812 C 33.53125 -96.855469 54.507812 -118.496094 81.625 -118.496094 C 108.613281 -118.496094 129.453125 -96.855469 129.453125 -68.132812 C 129.453125 -39.144531 108.613281 -17.769531 81.625 -17.769531 Z M 81.625 -17.769531 "/></g></g></g><g fill="#f5978f" fill-opacity="1"><g transform="translate(1248.417972, 355.965223)"><g><path d="M 55.175781 0 L 55.175781 -116.226562 L 93.917969 -116.226562 L 93.917969 -136.265625 L 55.175781 -136.265625 L 55.175781 -144.015625 C 55.175781 -158.574219 63.457031 -169.796875 77.484375 -169.796875 L 94.984375 -169.796875 L 94.984375 -189.167969 L 72.140625 -189.167969 C 44.488281 -189.167969 32.0625 -168.0625 32.0625 -145.882812 L 32.0625 -136.265625 L 2.9375 -136.265625 L 2.9375 -116.226562 L 32.0625 -116.226562 L 32.0625 0 Z M 55.175781 0 "/></g></g></g><g fill="#f5978f" fill-opacity="1"><g transform="translate(1344.842909, 355.965223)"><g><path d="M 99.792969 0 L 99.792969 -19.503906 L 79.222656 -19.503906 C 67.0625 -19.503906 54.773438 -24.046875 54.773438 -49.429688 L 54.773438 -116.09375 L 99.792969 -116.09375 L 99.792969 -136.265625 L 54.773438 -136.265625 L 54.773438 -176.878906 L 31.796875 -176.746094 L 31.796875 -136.265625 L 1.46875 -136.265625 L 1.46875 -116.09375 L 31.796875 -116.09375 L 31.796875 -50.5 C 31.796875 -8.015625 53.972656 0 74.679688 0 Z M 99.792969 0 "/></g></g></g><g fill="#f5978f" fill-opacity="1"><g transform="translate(1452.219155, 355.965223)"><g><path d="M 69.734375 0 L 103.667969 -102.066406 L 103.800781 -102.066406 L 137.46875 0 L 159.109375 0 L 206 -136.265625 L 181.6875 -136.265625 L 150.027344 -39.8125 L 146.417969 -29.65625 L 146.019531 -29.65625 L 142.945312 -39.410156 L 112.886719 -136.265625 L 95.253906 -136.265625 L 64.257812 -37.671875 L 61.585938 -29.65625 L 61.320312 -29.65625 L 58.78125 -37.808594 L 26.453125 -136.265625 L 1.738281 -136.265625 L 48.628906 0 Z M 69.734375 0 "/></g></g></g><g fill="#f5978f" fill-opacity="1"><g transform="translate(1659.893365, 355.965223)"><g><path d="M 76.414062 3.875 C 100.730469 3.875 121.167969 -8.816406 130.386719 -28.988281 L 130.386719 0 L 152.429688 0 L 152.429688 -136.265625 L 130.386719 -136.265625 L 130.386719 -107.007812 C 121.167969 -127.316406 100.863281 -140.007812 76.28125 -140.007812 C 39.277344 -140.007812 10.554688 -107.945312 10.554688 -68.132812 C 10.554688 -28.054688 39.144531 3.875 76.414062 3.875 Z M 81.492188 -17.632812 C 55.308594 -17.632812 33.398438 -37.941406 33.398438 -68.132812 C 33.398438 -97.523438 55.039062 -118.496094 81.625 -118.496094 C 108.078125 -118.496094 129.585938 -96.320312 129.585938 -68.132812 C 129.585938 -39.542969 108.210938 -17.632812 81.492188 -17.632812 Z M 81.492188 -17.632812 "/></g></g></g><g fill="#f5978f" fill-opacity="1"><g transform="translate(1834.312989, 355.965223)"><g><path d="M 45.15625 0 L 45.15625 -64.125 C 45.15625 -96.988281 62.921875 -116.09375 86.835938 -116.09375 L 98.859375 -116.09375 L 98.859375 -136.265625 L 85.632812 -136.265625 C 65.863281 -136.265625 50.898438 -124.644531 44.21875 -105.804688 L 44.21875 -136.265625 L 22.042969 -136.265625 L 22.042969 0 Z M 45.15625 0 "/></g></g></g><g fill="#f5978f" fill-opacity="1"><g transform="translate(1937.949764, 355.965223)"><g><path d="M 147.21875 -71.472656 C 147.21875 -108.078125 119.164062 -140.140625 79.890625 -140.140625 C 40.480469 -140.140625 10.554688 -107.945312 10.554688 -68.132812 C 10.554688 -28.1875 40.480469 3.742188 79.890625 3.742188 C 110.882812 3.742188 135.195312 -16.03125 142.945312 -41.011719 L 117.160156 -41.011719 C 111.148438 -25.648438 97.65625 -17.632812 79.355469 -17.632812 C 56.910156 -17.632812 36.605469 -34.734375 33.800781 -62.121094 L 146.820312 -62.121094 C 147.085938 -67.0625 147.21875 -69.066406 147.21875 -71.472656 Z M 34.867188 -82.425781 C 40.078125 -105.941406 59.046875 -118.496094 79.488281 -118.496094 C 102.734375 -118.496094 122.371094 -101.796875 123.707031 -82.425781 Z M 34.867188 -82.425781 "/></g></g></g><g fill="#30bdd9" fill-opacity="1"><g transform="translate(2161.114586, 355.965223)"><g><path d="M 91.511719 0 C 148.824219 0 186.898438 -36.335938 186.898438 -90.976562 C 186.898438 -145.351562 148.554688 -181.6875 91.109375 -181.6875 L 24.714844 -181.6875 L 24.714844 0 Z M 47.960938 -160.578125 L 90.441406 -160.578125 C 135.597656 -160.578125 162.984375 -132.660156 162.984375 -90.441406 C 162.984375 -48.359375 135.464844 -21.375 90.976562 -21.375 L 47.960938 -21.375 Z M 47.960938 -160.578125 "/></g></g></g><g fill="#30bdd9" fill-opacity="1"><g transform="translate(2358.905904, 355.965223)"><g><path d="M 147.21875 -71.472656 C 147.21875 -108.078125 119.164062 -140.140625 79.890625 -140.140625 C 40.480469 -140.140625 10.554688 -107.945312 10.554688 -68.132812 C 10.554688 -28.1875 40.480469 3.742188 79.890625 3.742188 C 110.882812 3.742188 135.195312 -16.03125 142.945312 -41.011719 L 117.160156 -41.011719 C 111.148438 -25.648438 97.65625 -17.632812 79.355469 -17.632812 C 56.910156 -17.632812 36.605469 -34.734375 33.800781 -62.121094 L 146.820312 -62.121094 C 147.085938 -67.0625 147.21875 -69.066406 147.21875 -71.472656 Z M 34.867188 -82.425781 C 40.078125 -105.941406 59.046875 -118.496094 79.488281 -118.496094 C 102.734375 -118.496094 122.371094 -101.796875 123.707031 -82.425781 Z M 34.867188 -82.425781 "/></g></g></g><g fill="#30bdd9" fill-opacity="1"><g transform="translate(2514.494619, 355.965223)"><g><path d="M 78.820312 0 L 134.261719 -136.265625 L 109.679688 -136.265625 L 71.207031 -40.078125 L 68 -27.921875 L 64.660156 -40.078125 L 26.183594 -136.265625 L 1.738281 -136.265625 L 57.042969 0 Z M 78.820312 0 "/></g></g></g><g fill="#30bdd9" fill-opacity="1"><g transform="translate(2650.45111, 355.965223)"><g><path d="M 147.21875 -71.472656 C 147.21875 -108.078125 119.164062 -140.140625 79.890625 -140.140625 C 40.480469 -140.140625 10.554688 -107.945312 10.554688 -68.132812 C 10.554688 -28.1875 40.480469 3.742188 79.890625 3.742188 C 110.882812 3.742188 135.195312 -16.03125 142.945312 -41.011719 L 117.160156 -41.011719 C 111.148438 -25.648438 97.65625 -17.632812 79.355469 -17.632812 C 56.910156 -17.632812 36.605469 -34.734375 33.800781 -62.121094 L 146.820312 -62.121094 C 147.085938 -67.0625 147.21875 -69.066406 147.21875 -71.472656 Z M 34.867188 -82.425781 C 40.078125 -105.941406 59.046875 -118.496094 79.488281 -118.496094 C 102.734375 -118.496094 122.371094 -101.796875 123.707031 -82.425781 Z M 34.867188 -82.425781 "/></g></g></g><g fill="#30bdd9" fill-opacity="1"><g transform="translate(2806.039825, 355.965223)"><g><path d="M 45.019531 0 L 45.019531 -188.367188 L 22.042969 -188.367188 L 22.042969 0 Z M 45.019531 0 "/></g></g></g><g fill="#30bdd9" fill-opacity="1"><g transform="translate(2873.083202, 355.965223)"><g><path d="M 81.359375 3.875 C 122.105469 3.875 152.429688 -28.054688 152.429688 -68.132812 C 152.429688 -108.078125 121.972656 -140.140625 81.359375 -140.140625 C 40.878906 -140.140625 10.554688 -107.945312 10.554688 -68.132812 C 10.554688 -28.054688 41.011719 3.875 81.359375 3.875 Z M 81.625 -17.769531 C 54.507812 -17.769531 33.53125 -39.144531 33.53125 -68.132812 C 33.53125 -96.855469 54.507812 -118.496094 81.625 -118.496094 C 108.613281 -118.496094 129.453125 -96.855469 129.453125 -68.132812 C 129.453125 -39.144531 108.613281 -17.769531 81.625 -17.769531 Z M 81.625 -17.769531 "/></g></g></g><g fill="#30bdd9" fill-opacity="1"><g transform="translate(3036.017304, 355.965223)"><g><path d="M 45.019531 46.492188 L 45.019531 -13.09375 L 44.621094 -28.457031 C 54.238281 -8.683594 74.410156 3.875 96.855469 3.875 C 134.929688 3.875 163.785156 -28.054688 163.785156 -68.132812 C 163.785156 -107.945312 135.0625 -140.007812 96.589844 -140.007812 C 72.941406 -140.007812 53.570312 -125.980469 44.085938 -107.140625 L 44.085938 -136.265625 L 22.042969 -136.265625 L 22.042969 46.492188 Z M 92.847656 -17.5 C 66.664062 -17.5 44.886719 -39.144531 44.886719 -68.132812 C 44.886719 -96.320312 66.261719 -118.632812 92.847656 -118.632812 C 119.433594 -118.632812 140.941406 -97.523438 140.941406 -68.132812 C 140.941406 -38.074219 119.03125 -17.5 92.847656 -17.5 Z M 92.847656 -17.5 "/></g></g></g><g fill="#30bdd9" fill-opacity="1"><g transform="translate(3210.436928, 355.965223)"><g><path d="M 147.21875 -71.472656 C 147.21875 -108.078125 119.164062 -140.140625 79.890625 -140.140625 C 40.480469 -140.140625 10.554688 -107.945312 10.554688 -68.132812 C 10.554688 -28.1875 40.480469 3.742188 79.890625 3.742188 C 110.882812 3.742188 135.195312 -16.03125 142.945312 -41.011719 L 117.160156 -41.011719 C 111.148438 -25.648438 97.65625 -17.632812 79.355469 -17.632812 C 56.910156 -17.632812 36.605469 -34.734375 33.800781 -62.121094 L 146.820312 -62.121094 C 147.085938 -67.0625 147.21875 -69.066406 147.21875 -71.472656 Z M 34.867188 -82.425781 C 40.078125 -105.941406 59.046875 -118.496094 79.488281 -118.496094 C 102.734375 -118.496094 122.371094 -101.796875 123.707031 -82.425781 Z M 34.867188 -82.425781 "/></g></g></g><g fill="#30bdd9" fill-opacity="1"><g transform="translate(3366.025643, 355.965223)"><g><path d="M 45.15625 0 L 45.15625 -64.125 C 45.15625 -96.988281 62.921875 -116.09375 86.835938 -116.09375 L 98.859375 -116.09375 L 98.859375 -136.265625 L 85.632812 -136.265625 C 65.863281 -136.265625 50.898438 -124.644531 44.21875 -105.804688 L 44.21875 -136.265625 L 22.042969 -136.265625 L 22.042969 0 Z M 45.15625 0 "/></g></g></g></svg>